# xmcd
#
# Track frame offsets: 
#        167
#        26880
#        53105
#        77375
#        89395
#        108165
#        128685
#        149015
#
# Disc length: 2240 seconds
#
# Revision: 0
# Processed by: cddbd v1.4PL0 Copyright (c) Steve Scherf et al.
# Submitted via: ExactAudioCopy v0.95a3
#
DISCID=6308be08
DTITLE=Amor belhom duo - Live in Tucson
DYEAR=2001
DGENRE=Country
TTITLE0=Reminds Me Of...
TTITLE1=Jen At Ten
TTITLE2=A Little Less Of Us
TTITLE3=Un Homme Et Une Femme
TTITLE4=Pulling On A Cig'
TTITLE5=No Gossip
TTITLE6=Le Dernier Mot
TTITLE7=Swamp Coolers
EXTD=
EXTT0=
EXTT1=
EXTT2=
EXTT3=
EXTT4=
EXTT5=
EXTT6=
EXTT7=
PLAYORDER=
